The Bugatti Veyron EB 16.4 is a mid-engined grand touring car. The Super Sport version is the fastest road-legal production car in the world, with a top speed of 431 km/h (268 mph).The original version has a top speed of 408.00 km/h (253.52 mph).It was named Car of the Decade (2000–2009) by the BBC television programme Top Gear. 

      Format : mkv
      File size : 296 MiB
      Duration : 44mn 39s
      Overall bit rate : 928 Kbps
      Format : AVC
      Format/Info : Advanced Video Codec
      Format profile : Main@L3.0
      Format settings, CABAC : Yes
      Format settings, ReFrames : 3 frames
      Format settings, GOP : M=1, N=48
      Codec ID : 7
      Duration : 44mn 39s
      Bit rate : 791 Kbps
      Width : 854 pixels
      Height : 480 pixels
      Display aspect ratio : 16:9
      Frame rate mode : Constant
      Frame rate : 23.976 fps
      Color space : YUV
      Chroma subsampling : 4:2:0
      Bit depth : 8 bits
      Scan type : Progressive
      Bits/(Pixel*Frame) : 0.080
      Stream size : 253 MiB (85%)
   Audio
      Format : AAC
      Format/Info : Advanced Audio Codec
      Format profile : LC
      Codec ID : 10
      Duration : 44mn 39s
      Bit rate : 129 Kbps
      Channel(s) : 2 channels
      Channel positions : Front: L R
      Sampling rate : 44.1 KHz
      Compression mode : Lossy
      Stream size : 41.1 MiB (14%)